<svg width="60" height="55" viewBox="0 0 60 55" fill="none" xmlns="http://www.w3.org/2000/svg">
<path d="M58.7843 0.462916C59.3867 0.867493 59.805 1.49653 59.947 2.21166C60.089 2.9268 59.9431 3.66946 59.5415 4.27629L43.1592 29.0266L26.777 53.7769C26.5528 54.1151 26.2569 54.3991 25.9106 54.6083C25.5644 54.8175 25.1764 54.9467 24.7746 54.9867C24.3727 55.0267 23.9671 54.9764 23.5869 54.8395C23.2067 54.7026 22.8614 54.4824 22.5758 54.1949L0.732804 32.1946C0.25051 31.6733 -0.0120551 30.9838 0.000425382 30.2714C0.0129058 29.5589 0.299457 28.8792 0.79971 28.3753C1.29996 27.8715 1.97486 27.5828 2.68221 27.5703C3.38957 27.5577 4.07415 27.8222 4.59174 28.3079L24.0794 47.9358L54.9982 1.22193C55.4004 0.615734 56.0252 0.195248 56.7352 0.0529173C57.4452 -0.0894138 58.1822 0.05806 58.7843 0.462916Z" fill="#5932EA"/>
</svg>
